General
Complete name : The.Passion.Of.The.Christ[2004]XviD.Ac3[EngHardSub]Cody'sBRrip.avi
Format : AVI
Format/Info : Audio Video Interleave
Format profile : OpenDML
File size : 2.82 GiB
Duration : 2h 6mn
Overall bit rate : 3 186 Kbps
Writing application : VirtualDubMod 1.5.10.2 (build 2540/release)
Writing library : VirtualDubMod build 2540/release

Video:

Format : MPEG-4 Visual
Format profile : Streaming Video@L1
Format settings, BVOP : Yes
Format settings, QPel : No
Format settings, GMC : 3 warppoints
Format settings, Matrix : Default
Muxing mode : Packet Bitstream
Codec ID : XVID
Codec ID/Hint : XviD
Duration : 2h 6mn
Bit rate : 2 535 Kbps
Width : 1 280 pixels
Height : 528 pixels
Display aspect ratio : 2.424
Frame rate : 23.976 fps
Resolution : 24 bits
Colorimetry : 4:2:0
Scan type : Progressive
Bits/(Pixel*Frame) : 0.156
Stream size : 2.24 GiB (80%)
Writing library : XviD 1.2.0.dev47 (UTC 2006-11-01)



Audio: [Hebrew/Latin]


Format : AC-3
Format/Info : Audio Coding 3
Codec ID : 2000
Bit rate mode : Constant
Bit rate : 640 Kbps
Channel(s) : 6 channels
Channel positions : Front: L C R, Rear: L R, LFE
Sampling rate : 48.0 KHz
Stream size : 579 MiB (20%)
Alignment : Split accross interleaves
Interleave, duration : 42 ms (1.00 video frame)
Interleave, preload duration : 500 ms


English Hard Subbed !!
 
http://www.imdb.com/title/tt0335345/


Romanian Subtitles included in the torrent.


DON'T FORGET TO SEED !

HIT AND RUN IS NOT AN OPTION BECAUSE IT IS ... A TORRENT !